STARTFONT 2.1
COMMENT $Header: courR14.bdf,v 1.3 96/02/06 22:30:53 peterlin Exp $
COMMENT 
COMMENT Copyright International Business Machines,Corp. 1991
COMMENT IBM Courier is a Trademark of the IBM Corporation.
COMMENT 
COMMENT Automatic rendering from Adobe Type 1 outline:
COMMENT Primoz Peterlin <primoz.peterlin@biofiz.mf.uni-lj.si>
COMMENT cour.pfa rendered at 15.000000 points
COMMENT Checksum eb69a063
FONT -ibm-courier-medium-r-normal--14-140-75-75-m-70-iso8859-2
SIZE 14 75 75
FONTBOUNDINGBOX 12 16 -1 -2
STARTPROPERTIES 3
FONT_ASCENT 13
FONT_DESCENT 2
DEFAULT_CHAR 32
ENDPROPERTIES
CHARS 191
STARTCHAR space
ENCODING 32
SWIDTH 572 0
DWIDTH 9 0
BBX 0 0 0 1
BITMAP
ENDCHAR
STARTCHAR exclam
ENCODING 33
SWIDTH 572 0
DWIDTH 9 0
BBX 2 9 4 1
BITMAP
80
80
80
80
80
80
00
c0
c0
ENDCHAR
STARTCHAR quotedbl
ENCODING 34
SWIDTH 572 0
DWIDTH 9 0
BBX 5 4 3 6
BITMAP
90
90
90
90
ENDCHAR
STARTCHAR numbersign
ENCODING 35
SWIDTH 572 0
DWIDTH 9 0
BBX 8 12 1 0
BITMAP
24
24
24
24
ff
24
24
ff
24
24
24
24
ENDCHAR
STARTCHAR dollar
ENCODING 36
SWIDTH 572 0
DWIDTH 9 0
BBX 6 12 2 -1
BITMAP
20
74
ac
a4
a0
70
2c
a4
a4
f8
20
20
ENDCHAR
STARTCHAR percent
ENCODING 37
SWIDTH 572 0
DWIDTH 9 0
BBX 8 10 1 1
BITMAP
60
90
90
63
0c
30
c6
09
09
06
ENDCHAR
STARTCHAR ampersand
ENCODING 38
SWIDTH 572 0
DWIDTH 9 0
BBX 7 9 2 1
BITMAP
38
48
40
40
64
94
98
88
76
ENDCHAR
STARTCHAR quoteright
ENCODING 39
SWIDTH 572 0
DWIDTH 9 0
BBX 3 4 3 6
BITMAP
60
40
c0
80
ENDCHAR
STARTCHAR parenleft
ENCODING 40
SWIDTH 572 0
DWIDTH 9 0
BBX 3 12 5 -1
BITMAP
20
40
40
80
80
80
80
80
80
40
40
20
ENDCHAR
STARTCHAR parenright
ENCODING 41
SWIDTH 572 0
DWIDTH 9 0
BBX 3 12 2 -1
BITMAP
80
40
40
20
20
20
20
20
20
40
40
80
ENDCHAR
STARTCHAR asterisk
ENCODING 42
SWIDTH 572 0
DWIDTH 9 0
BBX 6 6 2 4
BITMAP
20
20
f8
20
50
88
ENDCHAR
STARTCHAR plus
ENCODING 43
SWIDTH 572 0
DWIDTH 9 0
BBX 8 8 1 2
BITMAP
00
10
10
10
fe
10
10
10
ENDCHAR
STARTCHAR comma
ENCODING 44
SWIDTH 572 0
DWIDTH 9 0
BBX 3 4 3 -1
BITMAP
60
40
c0
80
ENDCHAR
STARTCHAR minus
ENCODING 45
SWIDTH 572 0
DWIDTH 9 0
BBX 7 1 1 5
BITMAP
fe
ENDCHAR
STARTCHAR period
ENCODING 46
SWIDTH 572 0
DWIDTH 9 0
BBX 2 2 4 1
BITMAP
c0
c0
ENDCHAR
STARTCHAR slash
ENCODING 47
SWIDTH 572 0
DWIDTH 9 0
BBX 7 13 1 -1
BITMAP
02
02
04
04
08
08
10
10
20
20
40
40
80
ENDCHAR
STARTCHAR zero
ENCODING 48
SWIDTH 572 0
DWIDTH 9 0
BBX 6 10 2 1
BITMAP
30
48
84
84
84
84
84
84
48
30
ENDCHAR
STARTCHAR one
ENCODING 49
SWIDTH 572 0
DWIDTH 9 0
BBX 6 10 2 1
BITMAP
20
e0
20
20
20
20
20
20
20
f8
ENDCHAR
STARTCHAR two
ENCODING 50
SWIDTH 572 0
DWIDTH 9 0
BBX 7 10 1 1
BITMAP
38
44
82
02
04
08
10
20
42
fe
ENDCHAR
STARTCHAR three
ENCODING 51
SWIDTH 572 0
DWIDTH 9 0
BBX 7 10 1 1
BITMAP
38
44
04
04
18
04
02
02
06
78
ENDCHAR
STARTCHAR four
ENCODING 52
SWIDTH 572 0
DWIDTH 9 0
BBX 7 10 1 1
BITMAP
08
18
18
28
48
48
88
fe
08
3e
ENDCHAR
STARTCHAR five
ENCODING 53
SWIDTH 572 0
DWIDTH 9 0
BBX 7 10 1 1
BITMAP
7c
40
40
40
78
06
02
02
04
78
ENDCHAR
STARTCHAR six
ENCODING 54
SWIDTH 572 0
DWIDTH 9 0
BBX 6 10 2 1
BITMAP
38
40
80
80
b8
c4
84
84
44
38
ENDCHAR
STARTCHAR seven
ENCODING 55
SWIDTH 572 0
DWIDTH 9 0
BBX 7 10 1 1
BITMAP
fe
82
84
04
04
08
08
08
10
10
ENDCHAR
STARTCHAR eight
ENCODING 56
SWIDTH 572 0
DWIDTH 9 0
BBX 6 10 2 1
BITMAP
78
84
84
84
78
84
84
84
84
78
ENDCHAR
STARTCHAR nine
ENCODING 57
SWIDTH 572 0
DWIDTH 9 0
BBX 6 10 1 1
BITMAP
70
88
84
84
8c
74
04
04
08
70
ENDCHAR
STARTCHAR colon
ENCODING 58
SWIDTH 572 0
DWIDTH 9 0
BBX 2 6 4 1
BITMAP
c0
c0
00
00
c0
c0
ENDCHAR
STARTCHAR semicolon
ENCODING 59
SWIDTH 572 0
DWIDTH 9 0
BBX 3 8 3 -1
BITMAP
60
60
00
00
60
60
40
80
ENDCHAR
STARTCHAR less
ENCODING 60
SWIDTH 572 0
DWIDTH 9 0
BBX 8 8 1 2
BITMAP
00
03
0c
30
c0
30
0c
03
ENDCHAR
STARTCHAR equal
ENCODING 61
SWIDTH 572 0
DWIDTH 9 0
BBX 8 4 1 4
BITMAP
ff
00
00
ff
ENDCHAR
STARTCHAR greater
ENCODING 62
SWIDTH 572 0
DWIDTH 9 0
BBX 8 7 1 2
BITMAP
c0
30
0c
03
0c
30
c0
ENDCHAR
STARTCHAR question
ENCODING 63
SWIDTH 572 0
DWIDTH 9 0
BBX 6 9 2 1
BITMAP
78
84
04
0c
30
20
00
30
30
ENDCHAR
STARTCHAR at
ENCODING 64
SWIDTH 572 0
DWIDTH 9 0
BBX 9 9 0 1
BITMAP
1e00
6100
4880
9680
9480
9480
9f00
4080
3f00
ENDCHAR
STARTCHAR A
ENCODING 65
SWIDTH 572 0
DWIDTH 9 0
BBX 9 9 0 1
BITMAP
3800
1400
1400
1200
2200
3e00
4100
4100
e380
ENDCHAR
STARTCHAR B
ENCODING 66
SWIDTH 572 0
DWIDTH 9 0
BBX 8 9 1 1
BITMAP
fc
42
42
42
7c
43
41
41
fe
ENDCHAR
STARTCHAR C
ENCODING 67
SWIDTH 572 0
DWIDTH 9 0
BBX 9 9 1 1
BITMAP
3d00
4300
8100
8000
8000
8000
8000
4100
3e00
ENDCHAR
STARTCHAR D
ENCODING 68
SWIDTH 572 0
DWIDTH 9 0
BBX 8 9 1 1
BITMAP
fc
42
41
41
41
41
41
42
fc
ENDCHAR
STARTCHAR E
ENCODING 69
SWIDTH 572 0
DWIDTH 9 0
BBX 8 9 1 1
BITMAP
ff
41
41
44
7c
44
41
41
ff
ENDCHAR
STARTCHAR F
ENCODING 70
SWIDTH 572 0
DWIDTH 9 0
BBX 8 9 1 1
BITMAP
ff
41
41
44
7c
44
40
40
f0
ENDCHAR
STARTCHAR G
ENCODING 71
SWIDTH 572 0
DWIDTH 9 0
BBX 8 9 1 1
BITMAP
3e
42
82
80
80
8f
81
41
3e
ENDCHAR
STARTCHAR H
ENCODING 72
SWIDTH 572 0
DWIDTH 9 0
BBX 8 9 1 1
BITMAP
e7
42
42
42
7e
42
42
42
e7
ENDCHAR
STARTCHAR I
ENCODING 73
SWIDTH 572 0
DWIDTH 9 0
BBX 6 9 2 1
BITMAP
f8
20
20
20
20
20
20
20
f8
ENDCHAR
STARTCHAR J
ENCODING 74
SWIDTH 572 0
DWIDTH 9 0
BBX 8 9 1 1
BITMAP
3f
04
04
04
04
84
84
84
78
ENDCHAR
STARTCHAR K
ENCODING 75
SWIDTH 572 0
DWIDTH 9 0
BBX 9 9 1 1
BITMAP
e7
42
44
48
70
48
44
42
e380
ENDCHAR
STARTCHAR L
ENCODING 76
SWIDTH 572 0
DWIDTH 9 0
BBX 8 9 1 1
BITMAP
f0
40
40
40
40
41
41
41
ff
ENDCHAR
STARTCHAR M
ENCODING 77
SWIDTH 572 0
DWIDTH 9 0
BBX 10 9 0 1
BITMAP
e1c0
6180
5280
5280
4c80
4c80
4080
4080
f3c0
ENDCHAR
STARTCHAR N
ENCODING 78
SWIDTH 572 0
DWIDTH 9 0
BBX 10 9 0 1
BITMAP
e3c0
3080
2880
2880
2480
2480
2280
2280
f180
ENDCHAR
STARTCHAR O
ENCODING 79
SWIDTH 572 0
DWIDTH 9 0
BBX 8 9 1 1
BITMAP
3c
42
81
81
81
81
81
42
3c
ENDCHAR
STARTCHAR P
ENCODING 80
SWIDTH 572 0
DWIDTH 9 0
BBX 8 9 1 1
BITMAP
fc
42
41
41
42
7c
40
40
f8
ENDCHAR
STARTCHAR Q
ENCODING 81
SWIDTH 572 0
DWIDTH 9 0
BBX 8 11 1 -1
BITMAP
3c
42
81
81
81
81
81
42
3c
30
4f
ENDCHAR
STARTCHAR R
ENCODING 82
SWIDTH 572 0
DWIDTH 9 0
BBX 8 9 1 1
BITMAP
fc
42
42
46
78
48
44
46
e3
ENDCHAR
STARTCHAR S
ENCODING 83
SWIDTH 572 0
DWIDTH 9 0
BBX 6 9 2 1
BITMAP
7c
84
84
80
78
04
84
84
f8
ENDCHAR
STARTCHAR T
ENCODING 84
SWIDTH 572 0
DWIDTH 9 0
BBX 9 9 0 1
BITMAP
ff80
8880
8880
8880
0800
0800
0800
0800
3e00
ENDCHAR
STARTCHAR U
ENCODING 85
SWIDTH 572 0
DWIDTH 9 0
BBX 9 9 0 1
BITMAP
f380
4100
4100
4100
4100
4100
4100
4100
3e00
ENDCHAR
STARTCHAR V
ENCODING 86
SWIDTH 572 0
DWIDTH 9 0
BBX 9 9 0 1
BITMAP
e380
4100
4100
2200
2200
1400
1400
0800
0800
ENDCHAR
STARTCHAR W
ENCODING 87
SWIDTH 572 0
DWIDTH 9 0
BBX 10 9 0 1
BITMAP
e1c0
4080
4080
4c80
4c80
5280
5280
2100
2100
ENDCHAR
STARTCHAR X
ENCODING 88
SWIDTH 572 0
DWIDTH 9 0
BBX 8 9 1 1
BITMAP
e7
42
24
18
18
18
24
42
e7
ENDCHAR
STARTCHAR Y
ENCODING 89
SWIDTH 572 0
DWIDTH 9 0
BBX 9 9 1 1
BITMAP
e380
4100
2200
1400
0800
0800
0800
0800
3e00
ENDCHAR
STARTCHAR Z
ENCODING 90
SWIDTH 572 0
DWIDTH 9 0
BBX 7 9 1 1
BITMAP
fe
82
84
08
10
20
42
82
fe
ENDCHAR
STARTCHAR bracketleft
ENCODING 91
SWIDTH 572 0
DWIDTH 9 0
BBX 3 13 5 -1
BITMAP
e0
80
80
80
80
80
80
80
80
80
80
80
e0
ENDCHAR
STARTCHAR backslash
ENCODING 92
SWIDTH 572 0
DWIDTH 9 0
BBX 7 13 1 -1
BITMAP
80
40
40
20
20
10
10
08
08
04
04
02
02
ENDCHAR
STARTCHAR bracketright
ENCODING 93
SWIDTH 572 0
DWIDTH 9 0
BBX 3 13 2 -1
BITMAP
e0
20
20
20
20
20
20
20
20
20
20
20
e0
ENDCHAR
STARTCHAR asciicircum
ENCODING 94
SWIDTH 572 0
DWIDTH 9 0
BBX 7 7 1 3
BITMAP
10
28
28
44
44
82
82
ENDCHAR
STARTCHAR underscore
ENCODING 95
SWIDTH 572 0
DWIDTH 9 0
BBX 11 1 -1 -1
BITMAP
ffe0
ENDCHAR
STARTCHAR quoteleft
ENCODING 96
SWIDTH 572 0
DWIDTH 9 0
BBX 3 4 3 6
BITMAP
20
60
40
c0
ENDCHAR
STARTCHAR a
ENCODING 97
SWIDTH 572 0
DWIDTH 9 0
BBX 8 7 1 1
BITMAP
78
04
7c
c4
84
8c
77
ENDCHAR
STARTCHAR b
ENCODING 98
SWIDTH 572 0
DWIDTH 9 0
BBX 9 10 0 1
BITMAP
c000
4000
4000
5c00
6200
4100
4100
4100
6200
dc00
ENDCHAR
STARTCHAR c
ENCODING 99
SWIDTH 572 0
DWIDTH 9 0
BBX 8 7 1 1
BITMAP
3e
42
82
80
80
43
3c
ENDCHAR
STARTCHAR d
ENCODING 100
SWIDTH 572 0
DWIDTH 9 0
BBX 8 10 1 1
BITMAP
06
02
02
3a
46
82
82
82
46
3b
ENDCHAR
STARTCHAR e
ENCODING 101
SWIDTH 572 0
DWIDTH 9 0
BBX 9 7 1 1
BITMAP
3c00
4200
8100
ff00
8000
4180
3e00
ENDCHAR
STARTCHAR f
ENCODING 102
SWIDTH 572 0
DWIDTH 9 0
BBX 6 10 2 1
BITMAP
3c
40
40
f8
40
40
40
40
40
f8
ENDCHAR
STARTCHAR g
ENCODING 103
SWIDTH 572 0
DWIDTH 9 0
BBX 8 10 1 -2
BITMAP
3b
46
82
82
82
46
3a
02
04
38
ENDCHAR
STARTCHAR h
ENCODING 104
SWIDTH 572 0
DWIDTH 9 0
BBX 9 10 0 1
BITMAP
e000
2000
2000
2e00
3100
2100
2100
2100
2100
7380
ENDCHAR
STARTCHAR i
ENCODING 105
SWIDTH 572 0
DWIDTH 9 0
BBX 6 11 2 1
BITMAP
20
20
00
00
e0
20
20
20
20
20
f8
ENDCHAR
STARTCHAR j
ENCODING 106
SWIDTH 572 0
DWIDTH 9 0
BBX 5 14 1 -2
BITMAP
08
08
00
00
f8
08
08
08
08
08
08
08
88
70
ENDCHAR
STARTCHAR k
ENCODING 107
SWIDTH 572 0
DWIDTH 9 0
BBX 8 10 1 1
BITMAP
c0
40
40
4e
48
50
70
48
44
c7
ENDCHAR
STARTCHAR l
ENCODING 108
SWIDTH 572 0
DWIDTH 9 0
BBX 6 10 2 1
BITMAP
e0
20
20
20
20
20
20
20
20
f8
ENDCHAR
STARTCHAR m
ENCODING 109
SWIDTH 572 0
DWIDTH 9 0
BBX 9 7 0 1
BITMAP
f600
4900
4900
4900
4900
4900
ed80
ENDCHAR
STARTCHAR n
ENCODING 110
SWIDTH 572 0
DWIDTH 9 0
BBX 8 7 1 1
BITMAP
dc
62
42
42
42
42
e7
ENDCHAR
STARTCHAR o
ENCODING 111
SWIDTH 572 0
DWIDTH 9 0
BBX 8 7 1 1
BITMAP
3c
42
81
81
81
42
3c
ENDCHAR
STARTCHAR p
ENCODING 112
SWIDTH 572 0
DWIDTH 9 0
BBX 9 10 0 -2
BITMAP
ee00
3100
2080
2080
2080
3100
2e00
2000
2000
f800
ENDCHAR
STARTCHAR q
ENCODING 113
SWIDTH 572 0
DWIDTH 9 0
BBX 8 10 1 -2
BITMAP
3b
46
82
82
82
46
3a
02
02
0f
ENDCHAR
STARTCHAR r
ENCODING 114
SWIDTH 572 0
DWIDTH 9 0
BBX 8 7 1 1
BITMAP
e7
28
30
20
20
20
fc
ENDCHAR
STARTCHAR s
ENCODING 115
SWIDTH 572 0
DWIDTH 9 0
BBX 7 7 1 1
BITMAP
3a
46
40
3c
82
c2
bc
ENDCHAR
STARTCHAR t
ENCODING 116
SWIDTH 572 0
DWIDTH 9 0
BBX 7 9 2 1
BITMAP
40
40
f8
40
40
40
40
40
3c
ENDCHAR
STARTCHAR u
ENCODING 117
SWIDTH 572 0
DWIDTH 9 0
BBX 8 7 1 1
BITMAP
c6
42
42
42
42
46
3b
ENDCHAR
STARTCHAR v
ENCODING 118
SWIDTH 572 0
DWIDTH 9 0
BBX 8 7 1 1
BITMAP
e7
42
42
24
24
18
18
ENDCHAR
STARTCHAR w
ENCODING 119
SWIDTH 572 0
DWIDTH 9 0
BBX 10 7 0 1
BITMAP
e1c0
4080
4c80
4c80
2d00
3300
3300
ENDCHAR
STARTCHAR x
ENCODING 120
SWIDTH 572 0
DWIDTH 9 0
BBX 9 7 0 1
BITMAP
e380
2200
1400
0800
1400
2200
e380
ENDCHAR
STARTCHAR y
ENCODING 121
SWIDTH 572 0
DWIDTH 9 0
BBX 9 10 0 -2
BITMAP
e380
4100
2200
2200
1400
0c00
0800
0800
1000
f800
ENDCHAR
STARTCHAR z
ENCODING 122
SWIDTH 572 0
DWIDTH 9 0
BBX 6 7 2 1
BITMAP
fc
88
10
20
40
84
fc
ENDCHAR
STARTCHAR braceleft
ENCODING 123
SWIDTH 572 0
DWIDTH 9 0
BBX 4 13 4 -1
BITMAP
30
40
40
40
40
40
80
40
40
40
40
40
30
ENDCHAR
STARTCHAR bar
ENCODING 124
SWIDTH 572 0
DWIDTH 9 0
BBX 1 14 4 -2
BITMAP
80
80
80
80
80
80
80
80
80
80
80
80
80
80
ENDCHAR
STARTCHAR braceright
ENCODING 125
SWIDTH 572 0
DWIDTH 9 0
BBX 4 13 2 -1
BITMAP
c0
20
20
20
20
20
10
20
20
20
20
20
c0
ENDCHAR
STARTCHAR asciitilde
ENCODING 126
SWIDTH 572 0
DWIDTH 9 0
BBX 7 3 1 4
BITMAP
62
92
8c
ENDCHAR
STARTCHAR space
ENCODING 160
SWIDTH 572 0
DWIDTH 9 0
BBX 0 0 0 1
BITMAP
ENDCHAR
STARTCHAR Aogonek
ENCODING 161
SWIDTH 572 0
DWIDTH 9 0
BBX 9 11 0 -1
BITMAP
3800
1400
1400
1200
2200
3e00
4100
4100
e380
0100
0180
ENDCHAR
STARTCHAR breve
ENCODING 162
SWIDTH 572 0
DWIDTH 9 0
BBX 5 2 2 9
BITMAP
88
70
ENDCHAR
STARTCHAR Lslash
ENCODING 163
SWIDTH 572 0
DWIDTH 9 0
BBX 8 9 1 1
BITMAP
f0
40
4c
70
c1
41
41
41
ff
ENDCHAR
STARTCHAR currency
ENCODING 164
SWIDTH 572 0
DWIDTH 9 0
BBX 7 7 1 2
BITMAP
ba
44
82
82
82
44
ba
ENDCHAR
STARTCHAR Lcaron
ENCODING 165
SWIDTH 572 0
DWIDTH 9 0
BBX 8 10 1 1
BITMAP
04
f4
48
40
40
40
41
41
41
ff
ENDCHAR
STARTCHAR Sacute
ENCODING 166
SWIDTH 572 0
DWIDTH 9 0
BBX 6 12 2 1
BITMAP
10
20
00
7c
84
84
80
78
04
84
84
f8
ENDCHAR
STARTCHAR section
ENCODING 167
SWIDTH 572 0
DWIDTH 9 0
BBX 6 11 2 -1
BITMAP
3c
44
40
60
98
84
64
18
88
88
f0
ENDCHAR
STARTCHAR dieresis
ENCODING 168
SWIDTH 572 0
DWIDTH 9 0
BBX 3 2 3 10
BITMAP
a0
a0
ENDCHAR
STARTCHAR Scaron
ENCODING 169
SWIDTH 572 0
DWIDTH 9 0
BBX 6 13 2 1
BITMAP
00
48
30
00
7c
84
84
80
78
04
84
84
f8
ENDCHAR
STARTCHAR Scedilla
ENCODING 170
SWIDTH 572 0
DWIDTH 9 0
BBX 6 11 2 -1
BITMAP
7c
84
84
80
78
04
84
84
f8
10
70
ENDCHAR
STARTCHAR Tcaron
ENCODING 171
SWIDTH 572 0
DWIDTH 9 0
BBX 9 13 0 1
BITMAP
0000
1200
0c00
0000
ff80
8880
8880
8880
0800
0800
0800
0800
3e00
ENDCHAR
STARTCHAR Zacute
ENCODING 172
SWIDTH 572 0
DWIDTH 9 0
BBX 7 12 1 1
BITMAP
08
10
00
fe
82
84
08
10
20
42
82
fe
ENDCHAR
STARTCHAR hyphen
ENCODING 173
SWIDTH 572 0
DWIDTH 9 0
BBX 3 1 3 5
BITMAP
e0
ENDCHAR
STARTCHAR Zcaron
ENCODING 174
SWIDTH 572 0
DWIDTH 9 0
BBX 7 13 1 1
BITMAP
00
24
18
00
fe
82
84
08
10
20
42
82
fe
ENDCHAR
STARTCHAR Zdotaccent
ENCODING 175
SWIDTH 572 0
DWIDTH 9 0
BBX 7 12 1 1
BITMAP
10
00
00
fe
82
84
08
10
20
42
82
fe
ENDCHAR
STARTCHAR degree
ENCODING 176
SWIDTH 572 0
DWIDTH 9 0
BBX 5 5 2 6
BITMAP
70
88
88
88
70
ENDCHAR
STARTCHAR aogonek
ENCODING 177
SWIDTH 572 0
DWIDTH 9 0
BBX 8 9 1 -1
BITMAP
78
04
7c
c4
84
8c
77
04
06
ENDCHAR
STARTCHAR ogonek
ENCODING 178
SWIDTH 572 0
DWIDTH 9 0
BBX 2 2 4 -1
BITMAP
80
c0
ENDCHAR
STARTCHAR lslash
ENCODING 179
SWIDTH 572 0
DWIDTH 9 0
BBX 6 10 2 1
BITMAP
e0
20
20
2c
30
60
a0
20
20
fc
ENDCHAR
STARTCHAR acute
ENCODING 180
SWIDTH 572 0
DWIDTH 9 0
BBX 3 2 4 9
BITMAP
40
80
ENDCHAR
STARTCHAR lcaron
ENCODING 181
SWIDTH 572 0
DWIDTH 9 0
BBX 7 10 2 1
BITMAP
e4
28
20
20
20
20
20
20
20
fc
ENDCHAR
STARTCHAR sacute
ENCODING 182
SWIDTH 572 0
DWIDTH 9 0
BBX 7 10 1 1
BITMAP
08
10
00
3a
46
40
3c
82
c2
bc
ENDCHAR
STARTCHAR caron
ENCODING 183
SWIDTH 572 0
DWIDTH 9 0
BBX 4 2 3 9
BITMAP
90
60
ENDCHAR
STARTCHAR cedilla
ENCODING 184
SWIDTH 572 0
DWIDTH 9 0
BBX 3 3 3 -1
BITMAP
40
20
e0
ENDCHAR
STARTCHAR scaron
ENCODING 185
SWIDTH 572 0
DWIDTH 9 0
BBX 7 10 1 1
BITMAP
24
18
00
3a
46
40
3c
82
c2
bc
ENDCHAR
STARTCHAR scedilla
ENCODING 186
SWIDTH 572 0
DWIDTH 9 0
BBX 7 9 1 -1
BITMAP
3a
46
40
3c
82
c2
bc
08
38
ENDCHAR
STARTCHAR tcaron
ENCODING 187
SWIDTH 572 0
DWIDTH 9 0
BBX 7 10 2 1
BITMAP
08
50
40
f8
40
40
40
40
40
3c
ENDCHAR
STARTCHAR zacute
ENCODING 188
SWIDTH 572 0
DWIDTH 9 0
BBX 6 10 2 1
BITMAP
10
20
00
fc
88
10
20
40
84
fc
ENDCHAR
STARTCHAR hungarumlaut
ENCODING 189
SWIDTH 572 0
DWIDTH 9 0
BBX 5 2 3 9
BITMAP
48
90
ENDCHAR
STARTCHAR zcaron
ENCODING 190
SWIDTH 572 0
DWIDTH 9 0
BBX 6 10 2 1
BITMAP
48
30
00
fc
88
10
20
40
84
fc
ENDCHAR
STARTCHAR zdotaccent
ENCODING 191
SWIDTH 572 0
DWIDTH 9 0
BBX 6 10 2 1
BITMAP
20
00
00
fc
88
10
20
40
84
fc
ENDCHAR
STARTCHAR Racute
ENCODING 192
SWIDTH 572 0
DWIDTH 9 0
BBX 8 12 1 1
BITMAP
08
10
00
fc
42
42
46
78
48
44
46
e3
ENDCHAR
STARTCHAR Aacute
ENCODING 193
SWIDTH 572 0
DWIDTH 9 0
BBX 9 12 0 1
BITMAP
0400
0800
0000
3800
1400
1400
1200
2200
3e00
4100
4100
e380
ENDCHAR
STARTCHAR Acircumflex
ENCODING 194
SWIDTH 572 0
DWIDTH 9 0
BBX 9 12 0 1
BITMAP
0c00
1200
0000
3800
1400
1400
1200
2200
3e00
4100
4100
e380
ENDCHAR
STARTCHAR Abreve
ENCODING 195
SWIDTH 572 0
DWIDTH 9 0
BBX 9 12 0 1
BITMAP
2200
1c00
0000
3800
1400
1400
1200
2200
3e00
4100
4100
e380
ENDCHAR
STARTCHAR Adieresis
ENCODING 196
SWIDTH 572 0
DWIDTH 9 0
BBX 9 13 0 1
BITMAP
0000
1400
1400
0000
3800
1400
1400
1200
2200
3e00
4100
4100
e380
ENDCHAR
STARTCHAR Lacute
ENCODING 197
SWIDTH 572 0
DWIDTH 9 0
BBX 8 12 1 1
BITMAP
20
40
00
f0
40
40
40
40
41
41
41
ff
ENDCHAR
STARTCHAR Cacute
ENCODING 198
SWIDTH 572 0
DWIDTH 9 0
BBX 9 12 1 1
BITMAP
0800
1000
0000
3d00
4300
8100
8000
8000
8000
8000
4100
3e00
ENDCHAR
STARTCHAR Ccedilla
ENCODING 199
SWIDTH 572 0
DWIDTH 9 0
BBX 9 11 1 -1
BITMAP
3d00
4300
8100
8000
8000
8000
8000
4100
3e00
0400
1c00
ENDCHAR
STARTCHAR Ccaron
ENCODING 200
SWIDTH 572 0
DWIDTH 9 0
BBX 9 13 1 1
BITMAP
0000
2400
1800
0000
3d00
4300
8100
8000
8000
8000
8000
4100
3e00
ENDCHAR
STARTCHAR Eacute
ENCODING 201
SWIDTH 572 0
DWIDTH 9 0
BBX 8 12 1 1
BITMAP
08
10
00
ff
41
41
44
7c
44
41
41
ff
ENDCHAR
STARTCHAR Eogonek
ENCODING 202
SWIDTH 572 0
DWIDTH 9 0
BBX 8 11 1 -1
BITMAP
ff
41
41
44
7c
44
41
41
ff
04
06
ENDCHAR
STARTCHAR Edieresis
ENCODING 203
SWIDTH 572 0
DWIDTH 9 0
BBX 8 13 1 1
BITMAP
00
28
28
00
ff
41
41
44
7c
44
41
41
ff
ENDCHAR
STARTCHAR Ecaron
ENCODING 204
SWIDTH 572 0
DWIDTH 9 0
BBX 8 13 1 1
BITMAP
00
24
18
00
ff
41
41
44
7c
44
41
41
ff
ENDCHAR
STARTCHAR Iacute
ENCODING 205
SWIDTH 572 0
DWIDTH 9 0
BBX 6 12 2 1
BITMAP
10
20
00
fc
20
20
20
20
20
20
20
fc
ENDCHAR
STARTCHAR Icircumflex
ENCODING 206
SWIDTH 572 0
DWIDTH 9 0
BBX 6 12 2 1
BITMAP
30
48
00
fc
20
20
20
20
20
20
20
fc
ENDCHAR
STARTCHAR Dcaron
ENCODING 207
SWIDTH 572 0
DWIDTH 9 0
BBX 8 13 1 1
BITMAP
00
24
18
00
fc
42
41
41
41
41
41
42
fc
ENDCHAR
STARTCHAR Eth
ENCODING 208
SWIDTH 572 0
DWIDTH 9 0
BBX 8 9 1 1
BITMAP
fc
42
41
41
f1
41
41
42
fc
ENDCHAR
STARTCHAR Nacute
ENCODING 209
SWIDTH 572 0
DWIDTH 9 0
BBX 10 12 0 1
BITMAP
0400
0800
0000
e3c0
3080
2880
2880
2480
2480
2280
2280
f180
ENDCHAR
STARTCHAR Ncaron
ENCODING 210
SWIDTH 572 0
DWIDTH 9 0
BBX 10 13 0 1
BITMAP
0000
1200
0c00
0000
e3c0
3080
2880
2880
2480
2480
2280
2280
f180
ENDCHAR
STARTCHAR Oacute
ENCODING 211
SWIDTH 572 0
DWIDTH 9 0
BBX 8 12 1 1
BITMAP
08
10
00
3c
42
81
81
81
81
81
42
3c
ENDCHAR
STARTCHAR Ocircumflex
ENCODING 212
SWIDTH 572 0
DWIDTH 9 0
BBX 8 12 1 1
BITMAP
18
24
00
3c
42
81
81
81
81
81
42
3c
ENDCHAR
STARTCHAR Ohungarumlaut
ENCODING 213
SWIDTH 572 0
DWIDTH 9 0
BBX 8 12 1 1
BITMAP
12
24
00
3c
42
81
81
81
81
81
42
3c
ENDCHAR
STARTCHAR Odieresis
ENCODING 214
SWIDTH 572 0
DWIDTH 9 0
BBX 8 13 1 1
BITMAP
00
28
28
00
3c
42
81
81
81
81
81
42
3c
ENDCHAR
STARTCHAR multiply
ENCODING 215
SWIDTH 572 0
DWIDTH 9 0
BBX 6 6 2 3
BITMAP
84
48
30
30
48
84
ENDCHAR
STARTCHAR Rcaron
ENCODING 216
SWIDTH 572 0
DWIDTH 9 0
BBX 8 13 1 1
BITMAP
00
24
18
00
fc
42
42
46
78
48
44
46
e3
ENDCHAR
STARTCHAR Uring
ENCODING 217
SWIDTH 572 0
DWIDTH 9 0
BBX 9 13 0 1
BITMAP
0800
1400
0800
0000
f380
4100
4100
4100
4100
4100
4100
4100
3e00
ENDCHAR
STARTCHAR Uacute
ENCODING 218
SWIDTH 572 0
DWIDTH 9 0
BBX 9 12 0 1
BITMAP
0400
0800
0000
f380
4100
4100
4100
4100
4100
4100
4100
3e00
ENDCHAR
STARTCHAR Uhungarumlaut
ENCODING 219
SWIDTH 572 0
DWIDTH 9 0
BBX 9 12 0 1
BITMAP
0900
1200
0000
f380
4100
4100
4100
4100
4100
4100
4100
3e00
ENDCHAR
STARTCHAR Udieresis
ENCODING 220
SWIDTH 572 0
DWIDTH 9 0
BBX 9 13 0 1
BITMAP
0000
1400
1400
0000
f380
4100
4100
4100
4100
4100
4100
4100
3e00
ENDCHAR
STARTCHAR Yacute
ENCODING 221
SWIDTH 572 0
DWIDTH 9 0
BBX 9 12 1 1
BITMAP
04
08
00
e380
41
22
14
08
08
08
08
3e
ENDCHAR
STARTCHAR Tcedilla
ENCODING 222
SWIDTH 572 0
DWIDTH 9 0
BBX 9 11 1 -1
BITMAP
ff80
8880
8880
8880
0800
0800
0800
0800
3e00
0800
1800
ENDCHAR
STARTCHAR germandbls
ENCODING 223
SWIDTH 572 0
DWIDTH 9 0
BBX 7 10 1 1
BITMAP
38
44
44
44
58
44
42
42
42
dc
ENDCHAR
STARTCHAR racute
ENCODING 224
SWIDTH 572 0
DWIDTH 9 0
BBX 8 10 1 1
BITMAP
08
10
00
e7
28
30
20
20
20
fc
ENDCHAR
STARTCHAR aacute
ENCODING 225
SWIDTH 572 0
DWIDTH 9 0
BBX 8 10 1 1
BITMAP
08
10
00
78
04
7c
c4
84
8c
77
ENDCHAR
STARTCHAR acircumflex
ENCODING 226
SWIDTH 572 0
DWIDTH 9 0
BBX 8 10 1 1
BITMAP
30
48
00
78
04
7c
c4
84
8c
77
ENDCHAR
STARTCHAR abreve
ENCODING 227
SWIDTH 572 0
DWIDTH 9 0
BBX 8 10 1 1
BITMAP
44
38
00
78
04
7c
c4
84
8c
77
ENDCHAR
STARTCHAR adieresis
ENCODING 228
SWIDTH 572 0
DWIDTH 9 0
BBX 8 11 1 1
BITMAP
00
28
28
00
78
04
7c
c4
84
8c
77
ENDCHAR
STARTCHAR lacute
ENCODING 229
SWIDTH 572 0
DWIDTH 9 0
BBX 6 12 2 1
BITMAP
20
40
e0
20
20
20
20
20
20
20
20
fc
ENDCHAR
STARTCHAR cacute
ENCODING 230
SWIDTH 572 0
DWIDTH 9 0
BBX 8 10 1 1
BITMAP
08
10
00
3e
42
82
80
80
43
3c
ENDCHAR
STARTCHAR ccedilla
ENCODING 231
SWIDTH 572 0
DWIDTH 9 0
BBX 8 9 1 -1
BITMAP
3e
42
82
80
80
43
3c
08
18
ENDCHAR
STARTCHAR ccaron
ENCODING 232
SWIDTH 572 0
DWIDTH 9 0
BBX 8 10 1 1
BITMAP
24
18
00
3e
42
82
80
80
43
3c
ENDCHAR
STARTCHAR eacute
ENCODING 233
SWIDTH 572 0
DWIDTH 9 0
BBX 9 10 1 1
BITMAP
0800
1000
0000
3c00
4200
8100
ff00
8000
4180
3e00
ENDCHAR
STARTCHAR eogonek
ENCODING 234
SWIDTH 572 0
DWIDTH 9 0
BBX 9 9 1 -1
BITMAP
3c00
4200
8100
ff00
8000
4180
3e00
0800
0c00
ENDCHAR
STARTCHAR edieresis
ENCODING 235
SWIDTH 572 0
DWIDTH 9 0
BBX 9 11 1 1
BITMAP
0000
1400
1400
0000
3c00
4200
8100
ff00
8000
4180
3e00
ENDCHAR
STARTCHAR ecaron
ENCODING 236
SWIDTH 572 0
DWIDTH 9 0
BBX 9 10 1 1
BITMAP
2400
1800
0000
3c00
4200
8100
ff00
8000
4180
3e00
ENDCHAR
STARTCHAR iacute
ENCODING 237
SWIDTH 572 0
DWIDTH 9 0
BBX 6 10 2 1
BITMAP
10
20
00
e0
20
20
20
20
20
fc
ENDCHAR
STARTCHAR icircumflex
ENCODING 238
SWIDTH 572 0
DWIDTH 9 0
BBX 6 10 2 1
BITMAP
30
48
00
e0
20
20
20
20
20
fc
ENDCHAR
STARTCHAR dcaron
ENCODING 239
SWIDTH 572 0
DWIDTH 9 0
BBX 10 10 1 1
BITMAP
0680
0300
0200
3a00
4600
8200
8200
8200
4600
3b00
ENDCHAR
STARTCHAR dbar
ENCODING 240
SWIDTH 572 0
DWIDTH 9 0
BBX 8 10 1 1
BITMAP
06
02
0f
3a
46
82
82
82
46
3b
ENDCHAR
STARTCHAR nacute
ENCODING 241
SWIDTH 572 0
DWIDTH 9 0
BBX 8 10 1 1
BITMAP
08
10
00
dc
62
42
42
42
42
e7
ENDCHAR
STARTCHAR ncaron
ENCODING 242
SWIDTH 572 0
DWIDTH 9 0
BBX 8 10 1 1
BITMAP
24
18
00
dc
62
42
42
42
42
e7
ENDCHAR
STARTCHAR oacute
ENCODING 243
SWIDTH 572 0
DWIDTH 9 0
BBX 8 10 1 1
BITMAP
08
10
00
3c
42
81
81
81
42
3c
ENDCHAR
STARTCHAR ocircumflex
ENCODING 244
SWIDTH 572 0
DWIDTH 9 0
BBX 8 10 1 1
BITMAP
18
24
00
3c
42
81
81
81
42
3c
ENDCHAR
STARTCHAR ohungarumlaut
ENCODING 245
SWIDTH 572 0
DWIDTH 9 0
BBX 8 10 1 1
BITMAP
12
24
00
3c
42
81
81
81
42
3c
ENDCHAR
STARTCHAR odieresis
ENCODING 246
SWIDTH 572 0
DWIDTH 9 0
BBX 8 11 1 1
BITMAP
00
14
14
00
3c
42
81
81
81
42
3c
ENDCHAR
STARTCHAR divide
ENCODING 247
SWIDTH 572 0
DWIDTH 9 0
BBX 8 7 1 2
BITMAP
10
00
00
fe
00
00
10
ENDCHAR
STARTCHAR rcaron
ENCODING 248
SWIDTH 572 0
DWIDTH 9 0
BBX 8 10 1 1
BITMAP
24
18
00
e7
28
30
20
20
20
fc
ENDCHAR
STARTCHAR uring
ENCODING 249
SWIDTH 572 0
DWIDTH 9 0
BBX 8 10 1 1
BITMAP
18
18
00
ce
42
42
42
42
46
3b
ENDCHAR
STARTCHAR uacute
ENCODING 250
SWIDTH 572 0
DWIDTH 9 0
BBX 8 10 1 1
BITMAP
08
10
00
ce
42
42
42
42
46
3b
ENDCHAR
STARTCHAR uhungarumlaut
ENCODING 251
SWIDTH 572 0
DWIDTH 9 0
BBX 8 10 1 1
BITMAP
12
24
00
ce
42
42
42
42
46
3b
ENDCHAR
STARTCHAR udieresis
ENCODING 252
SWIDTH 572 0
DWIDTH 9 0
BBX 8 11 1 1
BITMAP
00
28
28
00
ce
42
42
42
42
46
3b
ENDCHAR
STARTCHAR yacute
ENCODING 253
SWIDTH 572 0
DWIDTH 9 0
BBX 9 13 0 -2
BITMAP
0400
0800
0000
e380
4100
2200
2200
1400
0c00
0800
0800
1000
f800
ENDCHAR
STARTCHAR tcedilla
ENCODING 254
SWIDTH 572 0
DWIDTH 9 0
BBX 7 11 2 -1
BITMAP
40
40
f8
40
40
40
40
40
3c
08
38
ENDCHAR
STARTCHAR dotaccent
ENCODING 255
SWIDTH 572 0
DWIDTH 9 0
BBX 1 1 4 10
BITMAP
80
ENDCHAR
ENDFONT
